<svg width="16" height="16" viewBox="0 0 16 16" fill="none" xmlns="http://www.w3.org/2000/svg">
<g clip-path="url(#clip0_75_3534)">
<path d="M7.99729 16.0007C3.58525 15.9993 0 12.4114 0 7.99797C0 3.58593 3.58863 -0.000676494 8.00136 9.57101e-08C12.4202 0.000676686 16.0061 3.59675 15.9993 8.01895C15.9926 12.4195 12.4005 16.0027 7.99729 16.0007ZM4.10487 11.8789C4.14953 11.8789 4.17185 11.8836 4.19148 11.8789C4.90798 11.6881 5.62449 11.4973 6.33965 11.3018C6.39987 11.2848 6.45738 11.2368 6.50338 11.1908C8.25575 9.44114 10.0068 7.69012 11.7571 5.93911C11.9459 5.75034 11.9635 5.46617 11.7774 5.27199C11.4344 4.91475 11.0839 4.56428 10.7267 4.22192C10.5345 4.03789 10.2476 4.05684 10.0595 4.24493C8.30853 5.99594 6.55751 7.74628 4.80853 9.49933C4.75237 9.55548 4.70839 9.63532 4.68674 9.71245C4.55886 10.1664 4.43911 10.6231 4.31665 11.0792C4.24628 11.3424 4.17659 11.6062 4.10352 11.8802L4.10487 11.8789Z" fill="#E84142"/>
</g>
<defs>
<clipPath id="clip0_75_3534">
<rect width="16" height="16.0007" fill="white"/>
</clipPath>
</defs>
</svg>
