<svg width="145" height="27" viewBox="0 0 145 27" fill="none" xmlns="http://www.w3.org/2000/svg">
<path d="M10.9356 9.14489C10.9328 9.05196 10.9314 8.95866 10.9314 8.86501C10.9314 4.06946 14.6283 0.181887 19.1888 0.181887C22.9504 0.181887 26.1245 2.82673 27.1211 6.44441C26.1726 6.64988 25.2672 6.96776 24.4204 7.38302C23.8031 4.93631 21.694 3.13417 19.1871 3.13417C16.1958 3.13417 13.7709 5.69996 13.7709 8.86503C13.7709 9.39419 13.8387 9.9066 13.9656 10.3931C15.209 11.1994 16.2327 12.3038 16.9302 13.602L14.6462 15.8798C13.8883 13.5733 11.6765 11.9041 9.06605 11.9041C5.82959 11.9041 3.20592 14.4699 3.20592 17.6349C3.20592 20.8 5.82959 23.3658 9.06605 23.3658C10.5265 23.3658 11.8621 22.8434 12.8882 21.9792L12.885 21.9765L23.3622 11.5134L23.3667 11.5169C24.9752 9.93274 27.2041 8.95186 29.6673 8.95186C34.571 8.95186 38.5462 12.8394 38.5462 17.635C38.5462 22.4305 34.571 26.3181 29.6673 26.3181C26.2592 26.3181 23.2996 24.4404 21.8113 21.6851L24.0913 19.3998C24.8523 21.7013 27.0616 23.3659 29.6683 23.3659C32.9048 23.3659 35.5285 20.8001 35.5285 17.635C35.5285 14.4699 32.9048 11.9041 29.6683 11.9041C28.1546 11.9041 26.775 12.4654 25.7351 13.3868L25.747 13.3961L22.6 16.5376L20.816 18.3257L20.8154 18.3191L15.2379 23.8868L15.2319 23.8819C13.6347 25.3902 11.4606 26.3181 9.06497 26.3181C4.16124 26.3181 0.18599 22.4305 0.18599 17.635C0.18599 12.8394 4.16124 8.95185 9.06497 8.95185C9.70668 8.95185 10.3325 9.01842 10.9356 9.14489Z" fill="#3A65FF"/>
<path d="M57.799 16.4111H49.9837L48.3879 19.9525H46.6489L53.073 5.94712H54.7711L61.1748 19.9525H59.3948L57.799 16.4111ZM57.1034 14.8705L53.8709 7.76782L50.6793 14.8705H57.1034Z" fill="#3A65FF"/>
<path d="M67.501 19.9525H65.8439L61.568 9.40844H63.266L66.7031 18.3318L70.1198 9.40844H71.736L67.501 19.9525Z" fill="#3A65FF"/>
<path d="M80.6633 19.9525V18.3318C79.804 19.4723 78.4333 20.0325 76.7147 20.0325C74.4847 20.0325 73.0526 18.632 73.0526 16.8113C73.0526 14.9706 74.5461 13.8101 77.083 13.7901H80.6224V13.1699C80.6224 11.6293 79.6404 10.7089 77.7377 10.7089C76.5511 10.7089 75.4463 11.1491 74.321 11.9094L73.6459 10.769C75.0371 9.86862 76.2033 9.34842 78.0446 9.34842C80.7042 9.34842 82.1773 10.7289 82.1977 12.9898L82.2182 19.9525H80.6633ZM77.0216 18.672C78.8425 18.672 80.2337 17.7716 80.6428 16.3111V15.0506H77.2876C75.4872 15.0506 74.5461 15.5908 74.5461 16.7512C74.5461 17.9117 75.5077 18.672 77.0216 18.672Z" fill="#3A65FF"/>
<path d="M92.6172 5.90711C94.5813 5.90711 96.4839 6.6874 97.8547 7.94788L96.8727 9.16835C95.7679 8.06793 94.213 7.40768 92.6377 7.40768C89.4052 7.40768 86.8069 9.84861 86.8069 12.9298C86.8069 15.9909 89.4052 18.4519 92.6377 18.4519C94.213 18.4519 95.7474 17.8116 96.8727 16.7712L97.8751 17.8717C96.4635 19.1722 94.5403 20.0325 92.5558 20.0325C88.4231 20.0325 85.1497 16.8913 85.1497 12.9298C85.1497 9.00829 88.464 5.90711 92.6172 5.90711Z" fill="#3A65FF"/>
<path d="M102.912 19.9525H101.316V5.1068H102.912V19.9525Z" fill="#3A65FF"/>
<path d="M111.9 9.36843C115.092 9.36843 117.363 11.5292 117.363 14.6704C117.363 17.8316 115.092 20.0125 111.9 20.0125C108.708 20.0125 106.438 17.8316 106.438 14.6704C106.438 11.5292 108.708 9.36843 111.9 9.36843ZM111.9 10.789C109.65 10.789 108.033 12.3896 108.033 14.6905C108.033 17.0113 109.65 18.6119 111.9 18.6119C114.151 18.6119 115.767 17.0113 115.767 14.6905C115.767 12.3896 114.151 10.789 111.9 10.789Z" fill="#3A65FF"/>
<path d="M130.132 9.40844V19.9525H128.536V17.5715C127.82 19.2122 126.388 19.9925 124.445 20.0125C121.928 20.0125 120.414 18.4519 120.414 15.9109V9.40844H122.01V15.4908C122.01 17.3515 123.135 18.4519 124.997 18.4519C127.227 18.4119 128.536 16.8313 128.536 14.5904V9.40844H130.132Z" fill="#3A65FF"/>
<path d="M144.545 5.1068V19.9525H142.949V17.6916C142.151 19.1722 140.678 20.0325 138.755 20.0325C135.686 20.0325 133.558 17.8116 133.558 14.6704C133.558 11.5092 135.686 9.32841 138.734 9.32841C140.658 9.32841 142.151 10.1887 142.949 11.6893V5.1068H144.545ZM139.062 18.632C141.333 18.632 142.949 16.9913 142.949 14.7105C142.949 12.4096 141.333 10.749 139.062 10.749C136.77 10.749 135.154 12.4096 135.154 14.7105C135.154 16.9913 136.77 18.632 139.062 18.632Z" fill="#3A65FF"/>
<path fill-rule="evenodd" clip-rule="evenodd" d="M15.2379 23.8868L15.2319 23.8819C13.6347 25.3902 11.4606 26.3181 9.06497 26.3181C4.16124 26.3181 0.18599 22.4305 0.18599 17.635C0.18599 12.8394 4.16124 8.95185 9.06497 8.95185C9.64057 8.95185 10.2034 9.00541 10.7485 9.10772C10.8111 9.11947 10.8734 9.13186 10.9356 9.14489C10.9337 9.08282 10.9324 9.02058 10.9318 8.95819C10.9315 8.92717 10.9314 8.89611 10.9314 8.86501C10.9314 4.06946 14.6283 0.181887 19.1888 0.181887C22.8893 0.181887 26.0213 2.74155 27.0709 6.269C27.0882 6.32721 27.105 6.38568 27.1211 6.44441C27.0605 6.45754 27 6.47114 26.9398 6.48519C26.1201 6.67622 25.3339 6.95144 24.5911 7.30099C24.534 7.32789 24.4771 7.35524 24.4204 7.38302C24.4052 7.32272 24.3891 7.26282 24.3721 7.20332C23.6989 4.84858 21.6322 3.13417 19.1871 3.13417C16.1958 3.13417 13.7709 5.69996 13.7709 8.86503C13.7709 9.39419 13.8387 9.9066 13.9656 10.3931C15.209 11.1994 16.2327 12.3038 16.9302 13.602L14.6462 15.8798C14.625 15.8151 14.6025 15.7508 14.579 15.6871C13.7638 13.4809 11.6032 11.9041 9.06605 11.9041C5.82959 11.9041 3.20592 14.4699 3.20592 17.6349C3.20592 20.8 5.82959 23.3658 9.06605 23.3658C10.4585 23.3658 11.7375 22.8909 12.743 22.0976C12.7855 22.064 12.8276 22.0298 12.8692 21.9951C12.8755 21.9899 12.8817 21.9846 12.888 21.9794C12.8881 21.9793 12.8881 21.9792 12.8882 21.9792L12.885 21.9765L23.3622 11.5134L23.3667 11.5169C24.9752 9.93274 27.2041 8.95186 29.6673 8.95186C34.571 8.95186 38.5462 12.8394 38.5462 17.635C38.5462 22.4305 34.571 26.3181 29.6673 26.3181C26.2592 26.3181 23.2996 24.4404 21.8113 21.6851L24.0913 19.3998C24.1127 19.4645 24.1353 19.5288 24.159 19.5925C24.9769 21.7936 27.1349 23.3659 29.6683 23.3659C32.9048 23.3659 35.5285 20.8001 35.5285 17.635C35.5285 14.4699 32.9048 11.9041 29.6683 11.9041C28.2225 11.9041 26.8989 12.4162 25.877 13.265C25.8529 13.285 25.829 13.3052 25.8052 13.3256C25.782 13.3455 25.759 13.3655 25.7362 13.3858C25.7358 13.3861 25.7354 13.3864 25.7351 13.3868L25.747 13.3961L22.6 16.5376L20.816 18.3257L20.8154 18.3191L15.2379 23.8868ZM20.662 18.7322L15.2509 24.1338L15.2401 24.125C13.6216 25.5984 11.4508 26.5 9.06497 26.5C4.05852 26.5 0 22.531 0 17.635C0 12.739 4.05852 8.76996 9.06497 8.76996C9.63905 8.76996 10.2008 8.82217 10.7455 8.92204C10.7454 8.90305 10.7454 8.88404 10.7454 8.86501C10.7454 3.98166 14.5131 0 19.1888 0C23.0446 0 26.285 2.70997 27.3007 6.39709L27.3513 6.58084L27.1614 6.62199C26.228 6.82418 25.3371 7.13697 24.5038 7.54561L24.2956 7.64769L24.2398 7.42659C23.6403 5.05017 21.5974 3.31605 19.1871 3.31605C16.3121 3.31605 13.9569 5.78666 13.9569 8.86503C13.9569 9.35465 14.0166 9.82917 14.1287 10.281C15.3708 11.1005 16.394 12.213 17.0948 13.5174L17.1578 13.6347L14.5634 16.2222L14.4692 15.9355C13.7352 13.702 11.5934 12.086 9.06605 12.086C5.93231 12.086 3.39191 14.5703 3.39191 17.6349C3.39191 20.6996 5.93231 23.1839 9.06605 23.1839C10.4607 23.1839 11.7375 22.6921 12.7255 21.8758L23.3475 11.268L23.3541 11.2732C24.9862 9.72405 27.213 8.76997 29.6673 8.76997C34.6737 8.76997 38.7322 12.739 38.7322 17.635C38.7322 22.531 34.6737 26.5 29.6673 26.5C26.1876 26.5 23.1661 24.5826 21.6468 21.77L21.5836 21.6529L24.1735 19.057L24.2683 19.3439C25.0052 21.5725 27.1446 23.184 29.6683 23.184C32.8021 23.184 35.3425 20.6996 35.3425 17.635C35.3425 14.5704 32.8021 12.086 29.6683 12.086C28.275 12.086 26.9994 12.5769 26.0117 13.3918L22.7332 16.6646L22.7329 16.6649L20.6626 18.7399L20.662 18.7322ZM59.3948 19.9525L57.799 16.4111H49.9837L48.3879 19.9525H46.6489L53.073 5.94712H54.7711L61.1748 19.9525H59.3948ZM50.105 16.593L48.5092 20.1343H46.3617L52.9526 5.76524H54.8917L61.4617 20.1343H59.2735L57.6778 16.593H50.105ZM67.6278 20.1343H65.7175L61.2941 9.22655H63.3947L66.7026 17.8145L69.9908 9.22655H72.0089L67.6278 20.1343ZM70.1198 9.40844H71.736L67.501 19.9525H65.8439L61.568 9.40844H63.266L66.7031 18.3318L70.1198 9.40844ZM80.4773 20.1343V18.8321C79.5723 19.7645 78.271 20.2144 76.7147 20.2144C75.5594 20.2144 74.5967 19.8511 73.9209 19.238C73.2446 18.6244 72.8666 17.7701 72.8666 16.8113C72.8666 15.8375 73.2643 15.033 74.0026 14.4741C74.7352 13.9195 75.787 13.6184 77.0815 13.6082L77.083 13.6082L80.4364 13.6082V13.1699C80.4364 12.4385 80.2046 11.8777 79.7696 11.4973C79.3314 11.1141 78.6607 10.8908 77.7377 10.8908C76.6014 10.8908 75.5332 11.3114 74.4268 12.059L74.261 12.171L73.3972 10.7118L73.5433 10.6173C74.9531 9.70484 76.1548 9.16653 78.0446 9.16653C79.4059 9.16653 80.4891 9.52007 81.2362 10.1869C81.9854 10.8556 82.3731 11.8183 82.3837 12.9882L82.3837 12.9893L82.4047 20.1343H80.4773ZM80.6224 13.7901H77.083C74.5461 13.8101 73.0526 14.9706 73.0526 16.8113C73.0526 18.632 74.4847 20.0325 76.7147 20.0325C78.3142 20.0325 79.6123 19.5472 80.4773 18.5606C80.5417 18.4871 80.6037 18.4109 80.6633 18.3318V19.9525H82.2182L82.1977 12.9898C82.1773 10.7289 80.7042 9.34842 78.0446 9.34842C76.2033 9.34842 75.0371 9.86862 73.6459 10.769L74.321 11.9094C74.3725 11.8746 74.424 11.8405 74.4754 11.8071C75.5475 11.1097 76.6053 10.7089 77.7377 10.7089C79.6404 10.7089 80.6224 11.6293 80.6224 13.1699V13.7901ZM98.1062 7.92947L96.8881 9.44332L96.7399 9.29578C95.6689 8.22892 94.1613 7.58957 92.6377 7.58957C89.5018 7.58957 86.9929 9.95494 86.9929 12.9298C86.9929 15.885 89.5022 18.27 92.6377 18.27C94.1624 18.27 95.6519 17.6496 96.7449 16.6391L96.8841 16.5104L98.1343 17.8828L98.0027 18.0041C96.5616 19.3317 94.5943 20.2144 92.5558 20.2144C88.3238 20.2144 84.9637 16.995 84.9637 12.9298C84.9637 8.90093 88.3685 5.72522 92.6172 5.72522C94.6304 5.72522 96.5782 6.52437 97.9821 7.81538L98.1062 7.92947ZM103.098 20.1343H101.13V4.92492H103.098V20.1343ZM130.318 9.22655V20.1343H128.35V18.3089C128.007 18.8357 127.569 19.2508 127.046 19.556C126.321 19.9788 125.443 20.1841 124.447 20.1944L124.445 20.1944C123.146 20.1944 122.086 19.7907 121.351 19.0404C120.618 18.291 120.228 17.2163 120.228 15.9109V9.22655H122.196V15.4908C122.196 16.3853 122.466 17.0752 122.938 17.5411C123.409 18.0065 124.103 18.2697 124.995 18.27C126.062 18.2505 126.895 17.8643 127.463 17.227C128.033 16.5868 128.35 15.6771 128.35 14.5904V9.22655H130.318ZM124.997 18.4519C123.135 18.4519 122.01 17.3515 122.01 15.4908V9.40844H120.414V15.9109C120.414 18.4519 121.928 20.0125 124.445 20.0125C126.232 19.9941 127.587 19.3324 128.35 17.9497C128.417 17.8292 128.479 17.7031 128.536 17.5715V19.9525H130.132V9.40844H128.536V14.5904C128.536 16.8313 127.227 18.4119 124.997 18.4519ZM144.731 4.92492V20.1343H142.763V18.3325C141.883 19.5336 140.489 20.2144 138.755 20.2144C137.173 20.2144 135.823 19.6408 134.871 18.6543C133.919 17.6686 133.372 16.2816 133.372 14.6704C133.372 13.0495 133.918 11.6672 134.868 10.6887C135.819 9.70961 137.163 9.14652 138.734 9.14652C140.469 9.14652 141.879 9.82727 142.763 11.0429V4.92492H144.731ZM142.949 11.6893C142.891 11.5796 142.829 11.4734 142.763 11.3706C141.93 10.0676 140.517 9.32841 138.734 9.32841C135.686 9.32841 133.558 11.5092 133.558 14.6704C133.558 17.8116 135.686 20.0325 138.755 20.0325C140.537 20.0325 141.933 19.2935 142.763 18.0067C142.829 17.905 142.891 17.8 142.949 17.6916V19.9525H144.545V5.1068H142.949V11.6893ZM53.8709 7.76782L50.6793 14.8705H57.1034L53.8709 7.76782ZM56.8171 14.6886L53.872 8.21752L50.9642 14.6886H56.8171ZM80.6428 16.3111V15.0506H77.2876C75.4872 15.0506 74.5461 15.5908 74.5461 16.7512C74.5461 17.9117 75.5077 18.672 77.0216 18.672C78.8425 18.672 80.2337 17.7716 80.6428 16.3111ZM80.4568 15.2325H77.2876C76.4002 15.2325 75.7565 15.3667 75.3399 15.6202C74.9385 15.8645 74.7321 16.2288 74.7321 16.7512C74.7321 17.2776 74.9479 17.7049 75.3321 18.0046C75.7204 18.3074 76.2946 18.4901 77.0216 18.4901C78.7697 18.4901 80.0667 17.6361 80.4568 16.2862V15.2325ZM97.8547 7.94788L96.8727 9.16835C96.8289 9.12481 96.7845 9.08195 96.7394 9.0398C95.6448 8.01671 94.1507 7.40768 92.6377 7.40768C89.4052 7.40768 86.8069 9.84861 86.8069 12.9298C86.8069 15.9909 89.4052 18.4519 92.6377 18.4519C94.1499 18.4519 95.6245 17.8619 96.7356 16.8942C96.7819 16.8539 96.8276 16.8129 96.8727 16.7712L97.8751 17.8717C96.4635 19.1722 94.5403 20.0325 92.5558 20.0325C88.4231 20.0325 85.1497 16.8913 85.1497 12.9298C85.1497 9.00829 88.464 5.90711 92.6172 5.90711C94.5813 5.90711 96.4839 6.6874 97.8547 7.94788ZM115.959 10.712C116.964 11.682 117.549 13.0556 117.549 14.6704C117.549 16.2949 116.964 17.6783 115.959 18.6559C114.955 19.6333 113.54 20.1944 111.9 20.1944C110.26 20.1944 108.846 19.6333 107.841 18.6559C106.836 17.6783 106.252 16.2949 106.252 14.6704C106.252 13.0556 106.836 11.682 107.841 10.712C108.846 9.74225 110.26 9.18654 111.9 9.18654C113.54 9.18654 114.954 9.74225 115.959 10.712ZM109.256 12.0038C108.608 12.6543 108.219 13.5825 108.219 14.6905C108.219 15.8088 108.608 16.7421 109.256 17.3948C109.904 18.0473 110.821 18.4301 111.9 18.4301C112.979 18.4301 113.896 18.0473 114.544 17.3948C115.192 16.7421 115.581 15.8088 115.581 14.6905C115.581 13.5825 115.192 12.6543 114.544 12.0038C113.896 11.3536 112.979 10.9709 111.9 10.9709C110.821 10.9709 109.904 11.3536 109.256 12.0038ZM139.062 18.4501C141.224 18.4501 142.763 16.8966 142.763 14.7105C142.763 12.5025 141.222 10.9308 139.062 10.9308C136.88 10.9308 135.34 12.5031 135.34 14.7105C135.34 16.8959 136.878 18.4501 139.062 18.4501ZM101.316 19.9525V5.1068H102.912V19.9525H101.316ZM117.363 14.6704C117.363 11.5292 115.092 9.36843 111.9 9.36843C108.708 9.36843 106.438 11.5292 106.438 14.6704C106.438 17.8316 108.708 20.0125 111.9 20.0125C115.092 20.0125 117.363 17.8316 117.363 14.6704ZM108.033 14.6905C108.033 12.3896 109.65 10.789 111.9 10.789C114.151 10.789 115.767 12.3896 115.767 14.6905C115.767 17.0113 114.151 18.6119 111.9 18.6119C109.65 18.6119 108.033 17.0113 108.033 14.6905ZM142.949 14.7105C142.949 16.9913 141.333 18.632 139.062 18.632C136.77 18.632 135.154 16.9913 135.154 14.7105C135.154 12.4096 136.77 10.749 139.062 10.749C141.333 10.749 142.949 12.4096 142.949 14.7105Z" fill="#3A65FF"/>
</svg>
