<?xml version="1.0" encoding="utf-8"?>
<!-- Generator: Adobe Illustrator 19.2.1, SVG Export Plug-In . SVG Version: 6.00 Build 0)  -->
<svg version="1.1" id="layer" xmlns="http://www.w3.org/2000/svg" xmlns:xlink="http://www.w3.org/1999/xlink" x="0px" y="0px"
	 viewBox="0 0 652 652" style="enable-background:new 0 0 652 652;" xml:space="preserve">
<style type="text/css">
	.st0{fill:#5A5660;}
	.st1{fill:none;stroke:#5A5660;stroke-width:1.6318;stroke-linejoin:bevel;stroke-miterlimit:10;}
</style>
<g>
	<g>
		<g>
			<polygon class="st0" points="57.1,321.9 43.8,321.9 45.5,315.8 58.7,315.8 61.3,307.1 35.2,307.1 25.1,343.3 37.8,343.3 
				41.6,329.8 54.8,329.8 			"/>
			<polygon class="st0" points="62,316.9 54.6,343.3 67.1,343.3 74.5,316.9 			"/>
			<polygon class="st0" points="77.3,307.1 64.7,307.1 62.7,314.4 75.2,314.4 			"/>
			<path class="st0" d="M97.2,307.1l-3.5,12.7c-1-1.9-3.7-3.5-7.1-3.5c-4.1,0-7.6,1.8-9.6,5.4c-2.7,4.8-4.5,11.5-4.5,16.1
				c0,4.1,2.5,6,6.6,6c4,0,6.5-1.5,9.1-3.6l-0.9,3h12.2l10.1-36.2H97.2z M89.6,334.6c-0.5,0.3-1.2,0.6-2.1,0.6
				c-1.2,0-1.9-0.9-1.9-1.9c0-2.1,0.8-4.4,1.7-6.6c0.6-1.5,1.7-1.9,2.9-1.9c0.8,0,1.5,0.4,2,1L89.6,334.6z"/>
			<path class="st0" d="M134.9,331.8c0.7-2.1,1.3-5.7,1.3-7.3c0-6.6-5.1-8.2-12.9-8.2c-5.1,0-10.5,1.5-13.7,5.7
				c-2.7,3.5-4.6,9.9-4.6,13.9c0,7.1,5.8,8.2,13.2,8.2c5.5,0,14.4-2.5,15.9-10.1H122c-0.7,2.5-1.5,3.3-3.3,3.3
				c-1.7,0-1.8-1.3-1.8-1.9c0-1.1,0.3-2,0.7-3.5C117.7,331.8,134.9,331.8,134.9,331.8z M122.3,322.9c1.3,0,2.1,0.4,2.1,1.9
				c0,0.5-0.2,1.3-0.3,1.8h-5.1C119.7,324,120.8,322.9,122.3,322.9z"/>
			<polygon class="st0" points="145,307.1 134.9,343.3 147.4,343.3 157.5,307.1 			"/>
			<polygon class="st0" points="174.1,307.1 161.5,307.1 159.6,314.4 172,314.4 			"/>
			<polygon class="st0" points="158.9,316.9 151.4,343.3 164,343.3 171.4,316.9 			"/>
			<path class="st0" d="M211.4,316.9l-6.7,14.7l0.2-14.6h-10.3h-2.3h-4.4l1.6-5.9h-12.5l-6.8,24.1c-0.4,1.3-0.5,2.5-0.5,3.7
				c0,2.8,1.4,4.5,5.1,4.5h11.1l1.8-6.5H185c-1.7,0-2.1-0.4-2.1-1.5c0-0.6,0.2-1.6,0.4-2.3l2.9-10h6.6l1.9,20.5
				c-0.3,1.5-0.8,2.4-1.8,2.9c-1,0.5-3.5,0.4-4.3,0.3h-0.2l-2,7.1h8.6c5,0,7.5-2.5,11.1-8.2l18.3-28.7
				C224.2,316.9,211.4,316.9,211.4,316.9z"/>
		</g>
	</g>
	<g>
		<line class="st1" x1="266.8" y1="301.5" x2="266.8" y2="334.4"/>
		<line class="st1" x1="266.8" y1="319.2" x2="283.2" y2="328.6"/>
		<line class="st1" x1="266.8" y1="333.2" x2="285.7" y2="333.2"/>
		<line class="st1" x1="257" y1="333.2" x2="247.9" y2="333.2"/>
		<line class="st1" x1="265.7" y1="302.3" x2="255.3" y2="340"/>
		<g>
			<path class="st0" d="M266.8,302l26.2,45.4l-25.3-14.6h-1.8l-25.3,14.6L266.8,302 M266.8,298.5l-31.1,53.9l0,0l0,0l31.1-18
				l31.1,18l0,0l0,0L266.8,298.5L266.8,298.5z"/>
		</g>
	</g>
	<g>
		<path class="st0" d="M314.9,343.3v-26.4h7.9c8.4,0,14.7,4,14.7,13.2c0,9-6.3,13.2-14.6,13.2L314.9,343.3L314.9,343.3z
			 M316.8,318.7v23h5.8c7.2,0,12.7-3.5,12.7-11.5c0-8.1-5.5-11.5-12.7-11.5C322.7,318.7,316.8,318.7,316.8,318.7z"/>
		<path class="st0" d="M345,316.9h1.9v26.4H345V316.9z"/>
		<path class="st0" d="M368.5,317.9c-7.2,0-12,5.4-12,12.2s4.5,12.3,12,12.3c3.2,0,5.6-0.7,7.6-1.7v-9.3h-6.5v-1.6h8.4v10.8l0.4,0.9
			c-2.4,1.4-6,2.5-10,2.5c-8.5,0-14-5.9-14-14c0-8.1,5.7-13.9,13.9-13.9c3.6,0,6.6,1.1,9,2.8v2.2
			C374.7,318.9,371.3,317.9,368.5,317.9z"/>
		<path class="st0" d="M387.3,316.9h1.9v26.4h-1.9V316.9z"/>
		<path class="st0" d="M406.4,343.3h-1.9v-24.7h-8.8V317h19.4v1.6h-8.8v24.7H406.4z"/>
		<path class="st0" d="M434.8,336.3h-14.4l-3,7h-2l11.4-26.4h1.9l10.9,26.4h-2L434.8,336.3z M421.1,334.7h13.1l-6.4-15.9
			L421.1,334.7z"/>
		<path class="st0" d="M445.4,316.9h1.8v24.8h12.5v1.6h-14.4L445.4,316.9L445.4,316.9z"/>
		<path class="st0" d="M494.1,336.3h-14.4l-3,7h-2l11.4-26.4h1.9l11,26.4h-2L494.1,336.3z M480.3,334.7h13.1l-6.4-15.9L480.3,334.7z
			"/>
		<path class="st0" d="M520.1,321.2c-2.2-2.3-4.6-3.5-7.1-3.5c-3.4,0-6.3,1.9-6.3,5.5s2.9,4.9,6,5.8c4.7,1.4,8,3.1,8,7.5
			c0,4.8-3.9,7.3-8.4,7.3c-3.3,0-5.9-1.1-8-2.9v-2.4c2.8,2.7,5.4,3.8,8,3.8c3.6,0,6.4-2.1,6.4-5.7s-3.2-4.9-6.5-5.9
			c-4.6-1.4-7.4-3.1-7.4-7.5c0-4.6,3.9-7.1,8.5-7.1c2.8,0,5.3,1,7,2.7L520.1,321.2L520.1,321.2z"/>
		<path class="st0" d="M542.8,321.2c-2.2-2.3-4.6-3.5-7.1-3.5c-3.4,0-6.3,1.9-6.3,5.5s2.9,4.9,6,5.8c4.7,1.4,8,3.1,8,7.5
			c0,4.8-3.9,7.3-8.4,7.3c-3.3,0-5.9-1.1-8-2.9v-2.4c2.8,2.7,5.4,3.8,8,3.8c3.6,0,6.4-2.1,6.4-5.7s-3.2-4.9-6.5-5.9
			c-4.6-1.4-7.4-3.1-7.4-7.5c0-4.6,3.9-7.1,8.5-7.1c2.8,0,5.3,1,7,2.7L542.8,321.2L542.8,321.2z"/>
		<path class="st0" d="M550.9,316.9h15.8v1.6h-14v10.3h13.1v1.6h-13.1v11.1h14.5v1.7h-16.4L550.9,316.9L550.9,316.9z"/>
		<path class="st0" d="M582.8,343.3h-1.9v-24.7h-8.8V317h19.4v1.6h-8.8L582.8,343.3L582.8,343.3z"/>
		<path class="st0" d="M611.2,321.2c-2.2-2.3-4.6-3.5-7.1-3.5c-3.4,0-6.3,1.9-6.3,5.5s2.9,4.9,6,5.8c4.7,1.4,8,3.1,8,7.5
			c0,4.8-3.9,7.3-8.4,7.3c-3.3,0-5.9-1.1-8-2.9v-2.4c2.8,2.7,5.4,3.8,8,3.8c3.6,0,6.4-2.1,6.4-5.7s-3.2-4.9-6.5-5.9
			c-4.6-1.4-7.4-3.1-7.4-7.5c0-4.6,3.9-7.1,8.5-7.1c2.8,0,5.3,1,7,2.7L611.2,321.2L611.2,321.2z"/>
		<path class="st0" d="M617.8,312.4c-0.6-0.4-1.2-0.7-1.8-0.7c-0.5,0-0.9,0.3-0.9,0.7c0,0.5,0.4,0.7,1.1,0.8
			c1.2,0.3,1.7,0.8,1.7,1.7c0,1.2-1,1.8-2.1,1.8c-0.7,0-1.4-0.2-1.8-0.5v-1.2c0.6,0.5,1.3,0.8,1.9,0.8c0.5,0,1-0.3,1-0.8
			s-0.4-0.7-1.1-0.9c-1.2-0.3-1.7-0.8-1.7-1.7c0-1.1,0.9-1.7,2.1-1.7c0.7,0,1.3,0.2,1.7,0.5v1.2H617.8z"/>
		<path class="st0" d="M620.1,312.5v4.2h-1.1v-5.8h1.5l1.6,4.2l0,0l1.5-4.2h1.5v5.8H624v-4.2l0,0l-1.6,4.2h-0.8L620.1,312.5
			L620.1,312.5z"/>
	</g>
</g>
</svg>
