<svg width="24" height="25" viewBox="0 0 24 25" fill="none" xmlns="http://www.w3.org/2000/svg">
<path d="M13.2452 3.95587C13.1389 3.90609 13.0183 3.87988 12.8955 3.87988V24.4997C13.0183 24.4997 13.1389 24.4735 13.2452 24.4237L23.6503 19.5537C23.7567 19.5039 23.845 19.4322 23.9064 19.3459C23.9678 19.2596 24.0001 19.1618 24 19.0621V9.3193C24.0001 9.21968 23.9678 9.1218 23.9064 9.03551C23.845 8.94922 23.7567 8.87757 23.6503 8.82776L13.2452 3.95587Z" fill="#1D1B20"/>
<path d="M13.2452 3.95587C13.1389 3.90609 13.0183 3.87988 12.8955 3.87988V24.4997C13.0183 24.4997 13.1389 24.4735 13.2452 24.4237L23.6503 19.5537C23.7567 19.5039 23.845 19.4322 23.9064 19.3459C23.9678 19.2596 24.0001 19.1618 24 19.0621V9.3193C24.0001 9.21968 23.9678 9.1218 23.9064 9.03551C23.845 8.94922 23.7567 8.87757 23.6503 8.82776L13.2452 3.95587Z" fill="black" fill-opacity="0.2"/>
<path d="M13.2452 3.95587C13.1389 3.90609 13.0183 3.87988 12.8955 3.87988V24.4997C13.0183 24.4997 13.1389 24.4735 13.2452 24.4237L23.6503 19.5537C23.7567 19.5039 23.845 19.4322 23.9064 19.3459C23.9678 19.2596 24.0001 19.1618 24 19.0621V9.3193C24.0001 9.21968 23.9678 9.1218 23.9064 9.03551C23.845 8.94922 23.7567 8.87757 23.6503 8.82776L13.2452 3.95587Z" fill="black" fill-opacity="0.2"/>
<path d="M13.2452 3.95587C13.1389 3.90609 13.0183 3.87988 12.8955 3.87988V24.4997C13.0183 24.4997 13.1389 24.4735 13.2452 24.4237L23.6503 19.5537C23.7567 19.5039 23.845 19.4322 23.9064 19.3459C23.9678 19.2596 24.0001 19.1618 24 19.0621V9.3193C24.0001 9.21968 23.9678 9.1218 23.9064 9.03551C23.845 8.94922 23.7567 8.87757 23.6503 8.82776L13.2452 3.95587Z" fill="black" fill-opacity="0.2"/>
<path d="M10.7548 0.575985C10.8611 0.526206 10.9817 0.5 11.1045 0.5V21.1198C10.9817 21.1198 10.8611 21.0936 10.7548 21.0438L0.349724 16.1738C0.243333 16.124 0.154998 16.0523 0.0936069 15.966C0.0322161 15.8798 -6.38962e-05 15.7819 1.43051e-05 15.6823V5.93942C-6.38962e-05 5.8398 0.0322161 5.74192 0.0936069 5.65563C0.154998 5.56934 0.243333 5.49769 0.349724 5.44788L10.7548 0.575985Z" fill="#1D1B20"/>
<path d="M10.7548 0.575985C10.8611 0.526206 10.9817 0.5 11.1045 0.5V21.1198C10.9817 21.1198 10.8611 21.0936 10.7548 21.0438L0.349724 16.1738C0.243333 16.124 0.154998 16.0523 0.0936069 15.966C0.0322161 15.8798 -6.38962e-05 15.7819 1.43051e-05 15.6823V5.93942C-6.38962e-05 5.8398 0.0322161 5.74192 0.0936069 5.65563C0.154998 5.56934 0.243333 5.49769 0.349724 5.44788L10.7548 0.575985Z" fill="black" fill-opacity="0.2"/>
<path d="M10.7548 0.575985C10.8611 0.526206 10.9817 0.5 11.1045 0.5V21.1198C10.9817 21.1198 10.8611 21.0936 10.7548 21.0438L0.349724 16.1738C0.243333 16.124 0.154998 16.0523 0.0936069 15.966C0.0322161 15.8798 -6.38962e-05 15.7819 1.43051e-05 15.6823V5.93942C-6.38962e-05 5.8398 0.0322161 5.74192 0.0936069 5.65563C0.154998 5.56934 0.243333 5.49769 0.349724 5.44788L10.7548 0.575985Z" fill="black" fill-opacity="0.2"/>
<path d="M10.7548 0.575985C10.8611 0.526206 10.9817 0.5 11.1045 0.5V21.1198C10.9817 21.1198 10.8611 21.0936 10.7548 21.0438L0.349724 16.1738C0.243333 16.124 0.154998 16.0523 0.0936069 15.966C0.0322161 15.8798 -6.38962e-05 15.7819 1.43051e-05 15.6823V5.93942C-6.38962e-05 5.8398 0.0322161 5.74192 0.0936069 5.65563C0.154998 5.56934 0.243333 5.49769 0.349724 5.44788L10.7548 0.575985Z" fill="black" fill-opacity="0.2"/>
</svg>
