<svg width="24" height="16" viewBox="0 0 24 16" fill="none" xmlns="http://www.w3.org/2000/svg">
<path d="M14.9268 4.18014C14.2114 2.95443 13.241 1.98403 12.0154 1.26872C10.7896 0.55338 9.45142 0.195801 7.99987 0.195801C6.5485 0.195801 5.20987 0.553489 3.98434 1.26872C2.75862 1.98399 1.7883 2.95443 1.07292 4.18014C0.357652 5.40582 0 6.74427 0 8.19545C0 9.93866 0.508586 11.5062 1.52601 12.8985C2.54333 14.2908 3.85756 15.2543 5.46858 15.789C5.65611 15.8238 5.79493 15.7993 5.88519 15.7161C5.97549 15.6329 6.02058 15.5286 6.02058 15.4038C6.02058 15.3829 6.01879 15.1955 6.01533 14.8413C6.01204 14.5323 6.01029 14.2234 6.01007 13.9144L5.77048 13.9558C5.61773 13.9838 5.42502 13.9957 5.19236 13.9923C4.95981 13.9891 4.7184 13.9647 4.46844 13.9194C4.21838 13.8745 3.9858 13.7703 3.77051 13.6071C3.55532 13.4439 3.40257 13.2303 3.31227 12.9666L3.20811 12.7269C3.13868 12.5673 3.02937 12.3901 2.88004 12.1957C2.73071 12.0012 2.57971 11.8694 2.42695 11.8L2.35402 11.7478C2.30542 11.7131 2.26033 11.6712 2.21863 11.6226C2.17696 11.5741 2.14577 11.5255 2.12493 11.4768C2.10407 11.4281 2.12136 11.3882 2.177 11.3568C2.23264 11.3255 2.33318 11.3103 2.47908 11.3103L2.68733 11.3414C2.82623 11.3692 2.99803 11.4524 3.20296 11.5913C3.40778 11.7302 3.57616 11.9107 3.70812 12.1328C3.86792 12.4176 4.06044 12.6346 4.28624 12.784C4.51186 12.9333 4.73934 13.0078 4.96846 13.0078C5.19758 13.0078 5.39547 12.9905 5.5622 12.9559C5.72875 12.9212 5.88501 12.869 6.03091 12.7996C6.0934 12.3341 6.26356 11.9765 6.54124 11.7266C6.14547 11.685 5.78964 11.6224 5.47358 11.5391C5.1577 11.4557 4.83128 11.3203 4.49453 11.1326C4.1576 10.9452 3.8781 10.7125 3.65595 10.4348C3.43376 10.1571 3.25141 9.79236 3.10916 9.34109C2.96684 8.88963 2.89566 8.36886 2.89566 7.77863C2.89566 6.93822 3.17002 6.22306 3.71863 5.63275C3.46163 5.00092 3.4859 4.29262 3.79149 3.50792C3.99288 3.44535 4.29153 3.49231 4.68731 3.6485C5.08316 3.80476 5.37299 3.93862 5.55709 4.0496C5.74119 4.16055 5.88869 4.25457 5.99982 4.33082C6.64577 4.15033 7.31237 4.06007 7.9998 4.06007C8.68723 4.06007 9.35397 4.15033 9.99996 4.33082L10.3958 4.08094C10.6664 3.91421 10.9861 3.76141 11.3539 3.62252C11.722 3.4837 12.0034 3.44546 12.1979 3.50803C12.5103 4.29277 12.5381 5.00103 12.2811 5.63286C12.8297 6.22317 13.1041 6.93851 13.1041 7.77873C13.1041 8.36897 13.0327 8.89139 12.8906 9.3463C12.7483 9.8013 12.5644 10.1656 12.3388 10.4401C12.1129 10.7145 11.8316 10.9454 11.4949 11.1327C11.158 11.3203 10.8315 11.4556 10.5156 11.539C10.1996 11.6224 9.84377 11.6851 9.44799 11.7268C9.80897 12.0391 9.98949 12.5322 9.98949 13.2058V15.4035C9.98949 15.5283 10.0329 15.6326 10.1198 15.7159C10.2066 15.799 10.3437 15.8235 10.5312 15.7886C12.1424 15.254 13.4567 14.2905 14.4739 12.8982C15.4911 11.5059 15.9999 9.93836 15.9999 8.19516C15.9995 6.74416 15.6417 5.40582 14.9268 4.18014Z" fill="#F5F5F9"/>
</svg>
