<svg width="25" height="16" viewBox="0 0 25 16" fill="none" xmlns="http://www.w3.org/2000/svg">
<path d="M9.4099 1.88659C10.5753 2.0399 11.6726 2.5231 12.5726 3.27926C12.7979 3.46859 12.7966 3.80859 12.5886 4.01659L11.5112 5.09393C11.3032 5.30193 10.9672 5.29793 10.7306 5.12326C10.1402 4.68706 9.42996 4.44306 8.69618 4.42437C7.96241 4.40568 7.24064 4.6132 6.62885 5.01877C6.01706 5.42434 5.54486 6.00832 5.27635 6.69146C5.00783 7.3746 4.95599 8.12381 5.12788 8.83742C5.29976 9.55102 5.68704 10.1945 6.23715 10.6804C6.78726 11.1664 7.47357 11.4713 8.20293 11.5539C8.93229 11.6364 9.66938 11.4925 10.3142 11.1418C10.959 10.791 11.4802 10.2504 11.8072 9.59326H9.20057C9.05912 9.59326 8.92346 9.53707 8.82344 9.43705C8.72343 9.33703 8.66724 9.20137 8.66724 9.05993V7.53326C8.66724 7.39181 8.72343 7.25616 8.82344 7.15614C8.92346 7.05612 9.05912 6.99993 9.20057 6.99993H14.1959C14.4066 6.99993 14.6026 7.12393 14.6499 7.32993C14.8586 8.23793 14.5666 9.49393 14.5446 9.58593L14.5419 9.59659C14.1899 10.9053 13.4346 12.0673 12.3592 12.8926C11.5547 13.5098 10.6103 13.9192 9.60977 14.0843C8.60924 14.2494 7.58343 14.1652 6.62319 13.8392C5.66296 13.5132 4.79794 12.9555 4.10474 12.2153C3.41154 11.4752 2.91157 10.5755 2.6491 9.59602C2.38664 8.61652 2.36977 7.5874 2.60001 6.59981C2.83025 5.61223 3.30048 4.69667 3.96905 3.93422C4.63763 3.17177 5.48392 2.58596 6.43296 2.22868C7.382 1.87139 8.4045 1.75434 9.4099 1.88659Z" stroke="#E6E6E6" stroke-linecap="round" stroke-linejoin="round"/>
</svg>
