<svg
width="24" height="16" viewBox="0 0 24 16" fill="none" xmlns="http://www.w3.org/2000/svg">
<path d="M12.6667 4.66667V2.66667C12.6667 2.48986 12.5964 2.32029 12.4714 2.19526C12.3464 2.07024 12.1768 2 12 2H3.33333C2.97971 2 2.64057 2.14048 2.39052 2.39052C2.14048 2.64057 2 2.97971 2 3.33333M2 3.33333C2 3.68696 2.14048 4.02609 2.39052 4.27614C2.64057 4.52619 2.97971 4.66667 3.33333 4.66667H13.3333C13.5101 4.66667 13.6797 4.7369 13.8047 4.86193C13.9298 4.98695 14 5.15652 14 5.33333V8M2 3.33333V12.6667C2 13.0203 2.14048 13.3594 2.39052 13.6095C2.64057 13.8595 2.97971 14 3.33333 14H13.3333C13.5101 14 13.6797 13.9298 13.8047 13.8047C13.9298 13.6797 14 13.5101 14 13.3333V10.6667M14 8H12C11.6464 8 11.3072 8.14048 11.0572 8.39052C10.8071 8.64057 10.6667 8.97971 10.6667 9.33333C10.6667 9.68696 10.8071 10.0261 11.0572 10.2761C11.3072 10.5262 11.6464 10.6667 12 10.6667H14M14 8C14.1768 8 14.3464 8.07024 14.4714 8.19526C14.5964 8.32029 14.6667 8.48986 14.6667 8.66667V10C14.6667 10.1768 14.5964 10.3464 14.4714 10.4714C14.3464 10.5964 14.1768 10.6667 14 10.6667" stroke="#F5F5F9" strokeLinecap="round" strokeLinejoin="round"/>
</svg>