<svg width="41" height="41" viewBox="0 0 41 41" fill="none" xmlns="http://www.w3.org/2000/svg">
<g id="Group 29614009">
<g id="Group">
<path id="Vector" d="M20.0787 0C31.1679 0 40.1572 8.98933 40.1572 20.0785C40.1572 31.1677 31.1679 40.157 20.0787 40.157C8.98953 40.157 0.000202179 31.1677 0.000202179 20.0785C0.000202179 8.98933 8.98953 0 20.0787 0ZM20.0787 3.41335C18.8163 3.41335 17.7891 4.44064 17.7891 5.70303C17.7891 6.96542 18.8163 7.99198 20.0787 7.99198C21.3411 7.99198 22.3677 6.96469 22.3677 5.70303C22.3677 4.44137 21.3404 3.41335 20.0787 3.41335ZM20.0787 36.7429C21.3411 36.7429 22.3677 35.7157 22.3677 34.4533C22.3677 33.1909 21.3404 32.1643 20.0787 32.1643C18.8171 32.1643 17.7891 33.1916 17.7891 34.4533C17.7891 35.7149 18.8163 36.7429 20.0787 36.7429ZM4.79352 22.4711C5.64339 22.4711 6.39034 22.0258 6.81528 21.3562H10.8864C11.0456 22.5055 11.415 23.5875 11.956 24.563C11.4011 25.5808 11.5531 26.884 12.4132 27.7441C12.9359 28.2669 13.623 28.5283 14.3093 28.5283C14.7525 28.5283 15.1956 28.4188 15.5943 28.2012C16.9246 28.9386 18.4535 29.3592 20.0795 29.3592C21.7055 29.3592 23.1927 28.9503 24.5099 28.2318C24.9494 28.5297 25.4671 28.6896 26.0096 28.6896C26.7258 28.6896 27.399 28.4107 27.9057 27.904C28.4124 27.3973 28.6914 26.7241 28.6914 26.0079C28.6914 25.4654 28.5307 24.9477 28.2335 24.5082C28.7578 23.5473 29.117 22.4836 29.2725 21.3555H33.3437C33.7687 22.025 34.5155 22.4704 35.3654 22.4704C36.6847 22.4704 37.7581 21.3971 37.7581 20.0778C37.7581 18.7584 36.6847 17.6852 35.3654 17.6852C34.5155 17.6852 33.7687 18.1305 33.3437 18.8001H29.2725C29.1134 17.6508 28.7439 16.5688 28.2029 15.5926C28.7578 14.5748 28.6059 13.2715 27.7458 12.4114C26.8857 11.5514 25.5817 11.3995 24.5647 11.9544C23.2344 11.217 21.7055 10.7964 20.0795 10.7964C18.4535 10.7964 16.9662 11.2053 15.6483 11.9244C14.6057 11.2213 13.1747 11.3294 12.2532 12.2515C11.3318 13.173 11.2231 14.604 11.9262 15.6466C11.4019 16.6082 11.0427 17.672 10.8864 18.8001H6.81528C6.39034 18.1305 5.64339 17.6852 4.79352 17.6852C3.47418 17.6852 2.40092 18.7584 2.40092 20.0778C2.40092 21.3971 3.47418 22.4704 4.79352 22.4704V22.4711Z" fill="#E84142"/>
<path id="Vector_2" d="M16.0455 16.0448C16.5573 15.5329 16.8173 14.8649 16.8282 14.1932C17.7927 13.6587 18.901 13.3535 20.0787 13.3535C21.1951 13.3535 22.2487 13.6273 23.1767 14.1107C23.1212 14.862 23.3797 15.6322 23.9528 16.2047C24.4756 16.7274 25.1619 16.9888 25.849 16.9888C25.9154 16.9888 25.9811 16.9859 26.0475 16.9808C26.5309 17.9088 26.8047 18.9624 26.8047 20.0787C26.8047 21.2564 26.5002 22.3648 25.9658 23.3285C25.2656 23.3395 24.6092 23.6169 24.1134 24.1127C23.6169 24.6092 23.3403 25.2655 23.3293 25.965C22.3655 26.4995 21.2579 26.8039 20.0795 26.8039C18.9631 26.8039 17.9095 26.5301 16.9815 26.0468C17.037 25.2955 16.7786 24.5252 16.2054 23.9528C15.6323 23.3796 14.862 23.1212 14.1114 23.1767C13.6281 22.2487 13.3543 21.1951 13.3543 20.0787C13.3543 18.9003 13.6595 17.792 14.1939 16.8282C14.8657 16.8172 15.5344 16.5566 16.0455 16.0448Z" fill="#E84142"/>
</g>
</g>
</svg>
