<svg width="41" height="41" viewBox="0 0 41 41" fill="none" xmlns="http://www.w3.org/2000/svg">
<g id="Group 29614009">
<path id="Vector" d="M20.0787 0C31.1679 0 40.1572 8.98933 40.1572 20.0785C40.1572 31.1677 31.1679 40.157 20.0787 40.157C8.98953 40.157 0.000202179 31.1677 0.000202179 20.0785C0.000202179 8.98933 8.98953 0 20.0787 0ZM10.1512 28.9634C10.652 29.4607 11.461 29.457 11.9582 28.9561L19.764 21.0839C19.9926 20.8532 20.3657 20.8561 20.5913 21.089L28.1882 28.935C28.6789 29.4417 29.4879 29.4548 29.9953 28.9642C30.502 28.4735 30.5152 27.6645 30.0245 27.1571L21.501 18.3547V17.5829H27.9422C28.4584 17.5829 28.7161 16.9594 28.3518 16.5943L20.6329 8.87543C20.4065 8.64909 20.04 8.64909 19.8137 8.87543L12.0948 16.5943C11.7297 16.9594 11.9882 17.5829 12.5044 17.5829H18.9456V18.2809L10.1439 27.1571C9.64665 27.658 9.6503 28.4669 10.1512 28.9642V28.9634Z" fill="#E84142"/>
</g>
</svg>
