<svg width="41" height="41" viewBox="0 0 41 41" fill="none" xmlns="http://www.w3.org/2000/svg">
<g id="Group 29614009">
<path id="Subtract" fill-rule="evenodd" clip-rule="evenodd" d="M40.3027 20.8158C40.3027 9.72664 31.3134 0.737305 20.2242 0.737305C9.13504 0.737305 0.14571 9.72664 0.14571 20.8158C0.14571 31.905 9.13504 40.8943 20.2242 40.8943C31.3134 40.8943 40.3027 31.905 40.3027 20.8158ZM20.2608 13.0764C20.9665 13.0764 21.5385 13.6485 21.5385 14.3542V27.2774C21.5385 27.9831 20.9665 28.5552 20.2608 28.5552C19.5551 28.5552 18.9831 27.9831 18.9831 27.2774V14.3542C18.9831 13.6485 19.5551 13.0764 20.2608 13.0764ZM27.0142 20.8158C27.0142 22.2272 28.1584 23.3713 29.5697 23.3713C30.981 23.3713 32.1251 22.2272 32.1251 20.8158C32.1251 19.4045 30.981 18.2604 29.5697 18.2604C28.1584 18.2604 27.0142 19.4045 27.0142 20.8158ZM10.9515 23.3713C9.54019 23.3713 8.39608 22.2272 8.39608 20.8158C8.39608 19.4045 9.54019 18.2604 10.9515 18.2604C12.3629 18.2604 13.507 19.4045 13.507 20.8158C13.507 22.2272 12.3629 23.3713 10.9515 23.3713Z" fill="#E84142"/>
</g>
</svg>
