<svg width="41" height="41" viewBox="0 0 41 41" fill="none" xmlns="http://www.w3.org/2000/svg">
<g id="Group 29614009">
<g id="Group">
<path id="Vector" d="M20.0787 0.105957C31.1679 0.105957 40.1572 9.09529 40.1572 20.1845C40.1572 31.2736 31.1679 40.263 20.0787 40.263C8.98953 40.263 0.000202179 31.2736 0.000202179 20.1845C0.000202179 9.09529 8.98953 0.105957 20.0787 0.105957ZM9.27211 30.2843C9.27211 30.6742 9.58825 30.9904 9.97814 30.9904H30.1786C30.5685 30.9904 30.8846 30.6742 30.8846 30.2843V10.0846C30.8846 9.69472 30.5685 9.37858 30.1786 9.37858H9.97814C9.58825 9.37858 9.27211 9.69472 9.27211 10.0846V30.2851V30.2843Z" fill="#E84142"/>
<path id="Vector_2" d="M12.5345 11.9331H27.624C28.0139 11.9331 28.3301 12.2493 28.3301 12.6391V27.7287C28.3301 28.1186 28.0139 28.4347 27.624 28.4347H12.5345C12.1446 28.4347 11.8284 28.1186 11.8284 27.7287V12.6391C11.8284 12.2493 12.1446 11.9331 12.5345 11.9331ZM14.5854 24.9717C14.5854 25.3616 14.9016 25.6778 15.2915 25.6778H24.8663C25.2562 25.6778 25.5724 25.3616 25.5724 24.9717V15.3961C25.5724 15.0062 25.2562 14.6901 24.8663 14.6901H15.2915C14.9016 14.6901 14.5854 15.0062 14.5854 15.3961V24.9717Z" fill="#E84142"/>
<path id="Vector_3" d="M17.8458 17.2456H22.3105C22.7005 17.2456 23.0166 17.5617 23.0166 17.9516V22.4164C23.0166 22.8063 22.7005 23.1224 22.3105 23.1224H17.8458C17.4559 23.1224 17.1398 22.8063 17.1398 22.4164V17.9516C17.1398 17.5617 17.4559 17.2456 17.8458 17.2456Z" fill="#E84142"/>
</g>
</g>
</svg>
