<svg width="41" height="41" viewBox="0 0 41 41" fill="none" xmlns="http://www.w3.org/2000/svg">
<g id="Group 29614009">
<path id="Vector" d="M20.0787 0C31.1679 0 40.1572 8.98933 40.1572 20.0785C40.1572 31.1677 31.1679 40.157 20.0787 40.157C8.98953 40.157 0.000202179 31.1677 0.000202179 20.0785C0.000202179 8.98933 8.98953 0 20.0787 0ZM13.0783 30.2908C13.582 30.7844 14.391 30.7763 14.8853 30.2726L20.0787 24.9726L25.2721 30.2726C25.7657 30.7763 26.5747 30.7851 27.0792 30.2908C27.583 29.7972 27.5917 28.9883 27.0974 28.4837L20.9914 22.2521C20.4905 21.741 19.6669 21.741 19.1661 22.2521L13.06 28.4837C12.5664 28.9875 12.5745 29.7965 13.0783 30.2908ZM13.06 11.6726L19.1661 17.9042C19.6669 18.4153 20.4905 18.4153 20.9914 17.9042L27.0974 11.6726C27.591 11.1688 27.583 10.3598 27.0792 9.86549C26.5754 9.37192 25.7664 9.37995 25.2721 9.88374L20.0787 15.1837L14.8853 9.88374C14.3918 9.37995 13.5828 9.37119 13.0783 9.86549C12.5737 10.3598 12.5657 11.168 13.06 11.6726Z" fill="#E84142"/>
</g>
</svg>
