<svg width="41" height="41" viewBox="0 0 41 41" fill="none" xmlns="http://www.w3.org/2000/svg">
<g id="Group 29614009">
<g id="Group">
<path id="Vector" d="M20.0791 6.93994C27.3235 6.93994 33.2178 12.8335 33.2178 20.0786C33.2178 27.3236 27.3242 33.2172 20.0791 33.2172C12.8341 33.2172 6.94049 27.3236 6.94049 20.0786C6.94049 12.8335 12.8341 6.93994 20.0791 6.93994ZM20.0791 30.5085C25.8303 30.5085 30.5097 25.8298 30.5097 20.0779C30.5097 14.3259 25.8311 9.64725 20.0791 9.64725C14.3272 9.64725 9.64852 14.3259 9.64852 20.0779C9.64852 25.8298 14.3272 30.5085 20.0791 30.5085Z" fill="#E84142"/>
<path id="Vector_2" d="M20.079 27.9534C15.7296 27.9534 12.2038 24.4276 12.2038 20.0783C12.2038 15.729 15.7296 12.2031 20.079 12.2031C24.4283 12.2031 27.9541 15.729 27.9541 20.0783C27.9541 24.4276 24.4283 27.9534 20.079 27.9534Z" fill="#E84142"/>
<path id="Vector_3" d="M20.0787 0C31.1679 0 40.1572 8.98933 40.1572 20.0785C40.1572 31.1677 31.1679 40.157 20.0787 40.157C8.98953 40.157 0.000202179 31.1677 0.000202179 20.0785C0.000202179 8.98933 8.98953 0 20.0787 0ZM8.9815 31.1757C11.9458 34.14 15.8871 35.7726 20.0787 35.7726C24.2704 35.7726 28.2116 34.14 31.1759 31.1757C34.1402 28.2114 35.7728 24.2702 35.7728 20.0785C35.7728 15.8868 34.1402 11.9456 31.1759 8.9813C28.2116 6.01698 24.2704 4.38442 20.0787 4.38442C15.8871 4.38442 11.9458 6.01698 8.9815 8.9813C6.01719 11.9456 4.38462 15.8868 4.38462 20.0785C4.38462 24.2702 6.01719 28.2114 8.9815 31.1757Z" fill="#E84142"/>
</g>
</g>
</svg>
